<?xml version="1.0" encoding="UTF-8"?>
<svg width="458px" height="458px" viewBox="0 0 458 458" version="1.1" xmlns="http://www.w3.org/2000/svg" xmlns:xlink="http://www.w3.org/1999/xlink">
    <title>wave-1204</title>
    <defs>
        <linearGradient x1="84.38921%" y1="9.80385334%" x2="26.418649%" y2="100%" id="linearGradient-1">
            <stop stop-color="#C8C8C8" offset="0%"></stop>
            <stop stop-color="#131415" offset="100%"></stop>
        </linearGradient>
        <path d="M128.629787,0 L329.370213,0 C400.410483,0 458,57.5895174 458,128.629787 L458,329.370213 C458,400.410483 400.410483,458 329.370213,458 L128.629787,458 C57.5895174,458 0,400.410483 0,329.370213 L0,128.629787 C0,57.5895174 57.5895174,0 128.629787,0 Z" id="path-2"></path>
    </defs>
    <g id="wave-1204" stroke="none" fill="none" xlink:href="#path-2" fill-rule="evenodd">
        <path stroke="url(#linearGradient-1)" stroke-width="3" d="M329.370213,1.5 C364.476134,1.5 396.258581,15.7294861 419.264547,38.7354526 C442.270514,61.7414191 456.5,93.5238659 456.5,128.629787 L456.5,329.370213 C456.5,364.476134 442.270514,396.258581 419.264547,419.264547 C396.258581,442.270514 364.476134,456.5 329.370213,456.5 L128.629787,456.5 C93.5238659,456.5 61.7414191,442.270514 38.7354526,419.264547 C15.7294861,396.258581 1.5,364.476134 1.5,329.370213 L1.5,128.629787 C1.5,93.5238659 15.7294861,61.7414191 38.7354526,38.7354526 C61.7414191,15.7294861 93.5238659,1.5 128.629787,1.5 L329.370213,1.5 Z" stroke-linejoin="square" fill="#131415"></path>
        <polygon id="Path" fill="#D8D8D8" points="83.1914062 208.388235 172.209673 296.089844 217.371094 296.089844 217.371094 208.388235 172.209673 206.445281 127.530173 161.910156 83.1914062 161.910156"></polygon>
        <polygon id="Path" fill="#D8D8D8" points="196.796875 162.357422 196.796875 208.8355 285.180638 296.537109 374.808594 208.8355 285.180638 208.8355 241.439161 162.357422"></polygon>
    </g>
</svg>
