<?xml version="1.0" encoding="UTF-8"?>
<svg width="384px" height="384px" viewBox="0 0 384 384" version="1.1" xmlns="http://www.w3.org/2000/svg" xmlns:xlink="http://www.w3.org/1999/xlink">
    <title>wave-1204</title>
    <defs>
        <path d="M107.846809,0 L276.153191,1.42108547e-14 C335.715339,0 384,48.2846609 384,107.846809 L384,276.153191 C384,335.715339 335.715339,384 276.153191,384 L107.846809,384 C48.2846609,384 1.42108547e-14,335.715339 1.42108547e-14,276.153191 L1.42108547e-14,107.846809 C0,48.2846609 48.2846609,2.84217094e-14 107.846809,1.42108547e-14 Z" id="path-1"></path>
    </defs>
    <g id="wave-1204" stroke="none" fill="none" xlink:href="#path-1" fill-rule="evenodd">
        <use fill="#131415" xlink:href="#path-1"></use>
        <polygon id="Path" fill="#D8D8D8" points="69.75 174.71852 144.385402 248.25 182.25 248.25 182.25 174.71852 144.385402 173.089493 106.924862 135.75 69.75 135.75"></polygon>
        <polygon id="Path" fill="#D8D8D8" points="165 136.125 165 175.09352 239.103417 248.625 314.25 175.09352 239.103417 175.09352 202.42934 136.125"></polygon>
    </g>
</svg>