<?xml version="1.0" encoding="UTF-8"?>
<svg width="292px" height="136px" viewBox="0 0 292 136" version="1.1" xmlns="http://www.w3.org/2000/svg" xmlns:xlink="http://www.w3.org/1999/xlink">
    <title>Group</title>
    <defs>
        <linearGradient x1="84.38921%" y1="9.80385334%" x2="26.418649%" y2="100%" id="linearGradient-1">
            <stop stop-color="#C8C8C8" offset="0%"></stop>
            <stop stop-color="#131415" offset="100%"></stop>
        </linearGradient>
        <path d="M128.629787,0 L329.370213,0 C400.410483,0 458,57.5895174 458,128.629787 L458,329.370213 C458,400.410483 400.410483,458 329.370213,458 L128.629787,458 C57.5895174,458 0,400.410483 0,329.370213 L0,128.629787 C0,57.5895174 57.5895174,0 128.629787,0 Z" id="path-2"></path>
    </defs>
    <g id="Page-1" stroke="none" stroke-width="1" fill="none" fill-rule="evenodd">
        <g id="wave-1204" transform="translate(-83, -161)" xlink:href="#path-2">
            <path stroke="url(#linearGradient-1)" stroke-width="3" d="M329.370213,1.5 C364.476134,1.5 396.258581,15.7294861 419.264547,38.7354526 C442.270514,61.7414191 456.5,93.5238659 456.5,128.629787 L456.5,329.370213 C456.5,364.476134 442.270514,396.258581 419.264547,419.264547 C396.258581,442.270514 364.476134,456.5 329.370213,456.5 L128.629787,456.5 C93.5238659,456.5 61.7414191,442.270514 38.7354526,419.264547 C15.7294861,396.258581 1.5,364.476134 1.5,329.370213 L1.5,128.629787 C1.5,93.5238659 15.7294861,61.7414191 38.7354526,38.7354526 C61.7414191,15.7294861 93.5238659,1.5 128.629787,1.5 L329.370213,1.5 Z" stroke-linejoin="square"></path>
            <g id="Group" stroke-width="1" fill-rule="evenodd" transform="translate(83.1914, 161.9102)" fill="#D8D8D8">
                <polygon id="Path" points="0 46.4780784 89.0182665 134.179688 134.179688 134.179688 134.179688 46.4780784 89.0182665 44.5351243 44.3387672 0 0 0"></polygon>
                <polygon id="Path" points="113.605469 0.447265625 113.605469 46.925344 201.989231 134.626953 291.617188 46.925344 201.989231 46.925344 158.247755 0.447265625"></polygon>
            </g>
        </g>
    </g>
</svg>